<?xml version="1.0" encoding="UTF-8" standalone="no"?>
<!-- Created with Inkscape (http://www.inkscape.org/) -->

<svg
   xmlns:dc="http://purl.org/dc/elements/1.1/"
   xmlns:cc="http://creativecommons.org/ns#"
   xmlns:rdf="http://www.w3.org/1999/02/22-rdf-syntax-ns#"
   xmlns:svg="http://www.w3.org/2000/svg"
   xmlns="http://www.w3.org/2000/svg"
   xmlns:sodipodi="http://sodipodi.sourceforge.net/DTD/sodipodi-0.dtd"
   xmlns:inkscape="http://www.inkscape.org/namespaces/inkscape"
   width="616.00159mm"
   height="616.00159mm"
   viewBox="0 0 616.00159 616.00159"
   version="1.1"
   id="svg1683"
   inkscape:version="0.92.3 (2405546, 2018-03-11)"
   sodipodi:docname="LogoCommunity.svg">
  <defs
     id="defs1677" />
  <sodipodi:namedview
     id="base"
     pagecolor="#ffffff"
     bordercolor="#666666"
     borderopacity="1.0"
     inkscape:pageopacity="0.0"
     inkscape:pageshadow="2"
     inkscape:zoom="0.35"
     inkscape:cx="1235.9148"
     inkscape:cy="1188.0264"
     inkscape:document-units="mm"
     inkscape:current-layer="layer1"
     showgrid="false"
     fit-margin-top="0"
     fit-margin-left="0"
     fit-margin-right="0"
     fit-margin-bottom="0"
     showborder="false"
     inkscape:window-width="1920"
     inkscape:window-height="1053"
     inkscape:window-x="0"
     inkscape:window-y="27"
     inkscape:window-maximized="1" />
  <metadata
     id="metadata1680">
    <rdf:RDF>
      <cc:Work
         rdf:about="">
        <dc:format>image/svg+xml</dc:format>
        <dc:type
           rdf:resource="http://purl.org/dc/dcmitype/StillImage" />
        <dc:title></dc:title>
      </cc:Work>
    </rdf:RDF>
  </metadata>
  <g
     inkscape:label="Calque 1"
     inkscape:groupmode="layer"
     id="layer1"
     transform="translate(387.85663,62.121999)">
    <g
       id="g2240">
      <path
         sodipodi:nodetypes="czczc"
         inkscape:connector-curvature="0"
         id="path2234"
         d="m -191.73889,130.77816 c 0,0 60.73915,-133.5965062 118.684525,-131.53571347 C -15.108985,1.3032392 32.023014,133.80197 32.023014,133.80197 c 0,0 -67.472027,-101.281212 -107.345236,-103.565478 C -115.19543,27.952226 -191.73889,130.77816 -191.73889,130.77816 Z"
         style="fill:#4d4d4d;fill-opacity:1;stroke:#000000;stroke-width:0.26458332px;stroke-linecap:butt;stroke-linejoin:miter;stroke-opacity:1" />
      <path
         d="m -46.596039,-37.421246 a 24.568451,24.568451 0 0 1 -24.516137,24.568396 24.568451,24.568451 0 0 1 -24.620542,-24.463769 24.568451,24.568451 0 0 1 24.411288,-24.672576 24.568451,24.568451 0 0 1 24.7245,24.358697"
         sodipodi:open="true"
         sodipodi:end="6.2746681"
         sodipodi:start="0"
         sodipodi:ry="24.568451"
         sodipodi:rx="24.568451"
         sodipodi:cy="-37.421246"
         sodipodi:cx="-71.16449"
         sodipodi:type="arc"
         id="path2236"
         style="opacity:1;fill:#000000;fill-opacity:1;stroke:#0000ff;stroke-width:0.26458332;stroke-linecap:square;stroke-linejoin:round;stroke-miterlimit:0;stroke-dasharray:none;stroke-dashoffset:0;stroke-opacity:1;paint-order:fill markers stroke" />
    </g>
    <g
       id="g2246"
       transform="rotate(90,-79.855834,245.8788)">
      <path
         style="fill:#4d4d4d;fill-opacity:1;stroke:#000000;stroke-width:0.26458332px;stroke-linecap:butt;stroke-linejoin:miter;stroke-opacity:1"
         d="m -191.73889,130.77816 c 0,0 60.73915,-133.5965062 118.684525,-131.53571347 C -15.108985,1.3032392 32.023014,133.80197 32.023014,133.80197 c 0,0 -67.472027,-101.281212 -107.345236,-103.565478 C -115.19543,27.952226 -191.73889,130.77816 -191.73889,130.77816 Z"
         id="path2242"
         inkscape:connector-curvature="0"
         sodipodi:nodetypes="czczc" />
      <path
         style="opacity:1;fill:#000000;fill-opacity:1;stroke:#0000ff;stroke-width:0.26458332;stroke-linecap:square;stroke-linejoin:round;stroke-miterlimit:0;stroke-dasharray:none;stroke-dashoffset:0;stroke-opacity:1;paint-order:fill markers stroke"
         id="path2244"
         sodipodi:type="arc"
         sodipodi:cx="-71.16449"
         sodipodi:cy="-37.421246"
         sodipodi:rx="24.568451"
         sodipodi:ry="24.568451"
         sodipodi:start="0"
         sodipodi:end="6.2746681"
         sodipodi:open="true"
         d="m -46.596039,-37.421246 a 24.568451,24.568451 0 0 1 -24.516137,24.568396 24.568451,24.568451 0 0 1 -24.620542,-24.463769 24.568451,24.568451 0 0 1 24.411288,-24.672576 24.568451,24.568451 0 0 1 24.7245,24.358697" />
    </g>
    <g
       id="g2252"
       transform="rotate(-180,-79.855834,245.8788)">
      <path
         style="fill:#4d4d4d;fill-opacity:1;stroke:#000000;stroke-width:0.26458332px;stroke-linecap:butt;stroke-linejoin:miter;stroke-opacity:1"
         d="m -191.73889,130.77816 c 0,0 60.73915,-133.5965062 118.684525,-131.53571347 C -15.108985,1.3032392 32.023014,133.80197 32.023014,133.80197 c 0,0 -67.472027,-101.281212 -107.345236,-103.565478 C -115.19543,27.952226 -191.73889,130.77816 -191.73889,130.77816 Z"
         id="path2248"
         inkscape:connector-curvature="0"
         sodipodi:nodetypes="czczc" />
      <path
         style="opacity:1;fill:#000000;fill-opacity:1;stroke:#0000ff;stroke-width:0.26458332;stroke-linecap:square;stroke-linejoin:round;stroke-miterlimit:0;stroke-dasharray:none;stroke-dashoffset:0;stroke-opacity:1;paint-order:fill markers stroke"
         id="path2250"
         sodipodi:type="arc"
         sodipodi:cx="-71.16449"
         sodipodi:cy="-37.421246"
         sodipodi:rx="24.568451"
         sodipodi:ry="24.568451"
         sodipodi:start="0"
         sodipodi:end="6.2746681"
         sodipodi:open="true"
         d="m -46.596039,-37.421246 a 24.568451,24.568451 0 0 1 -24.516137,24.568396 24.568451,24.568451 0 0 1 -24.620542,-24.463769 24.568451,24.568451 0 0 1 24.411288,-24.672576 24.568451,24.568451 0 0 1 24.7245,24.358697" />
    </g>
    <g
       transform="rotate(-90,-79.855832,245.8788)"
       id="g2258">
      <path
         sodipodi:nodetypes="czczc"
         inkscape:connector-curvature="0"
         id="path2254"
         d="m -191.73889,130.77816 c 0,0 60.73915,-133.5965062 118.684525,-131.53571347 C -15.108985,1.3032392 32.023014,133.80197 32.023014,133.80197 c 0,0 -67.472027,-101.281212 -107.345236,-103.565478 C -115.19543,27.952226 -191.73889,130.77816 -191.73889,130.77816 Z"
         style="fill:#4d4d4d;fill-opacity:1;stroke:#000000;stroke-width:0.26458332px;stroke-linecap:butt;stroke-linejoin:miter;stroke-opacity:1" />
      <path
         d="m -46.596039,-37.421246 a 24.568451,24.568451 0 0 1 -24.516137,24.568396 24.568451,24.568451 0 0 1 -24.620542,-24.463769 24.568451,24.568451 0 0 1 24.411288,-24.672576 24.568451,24.568451 0 0 1 24.7245,24.358697"
         sodipodi:open="true"
         sodipodi:end="6.2746681"
         sodipodi:start="0"
         sodipodi:ry="24.568451"
         sodipodi:rx="24.568451"
         sodipodi:cy="-37.421246"
         sodipodi:cx="-71.16449"
         sodipodi:type="arc"
         id="path2256"
         style="opacity:1;fill:#000000;fill-opacity:1;stroke:#0000ff;stroke-width:0.26458332;stroke-linecap:square;stroke-linejoin:round;stroke-miterlimit:0;stroke-dasharray:none;stroke-dashoffset:0;stroke-opacity:1;paint-order:fill markers stroke" />
    </g>
  </g>
</svg>
